<?xml version="1.0" standalone="no"?><!DOCTYPE svg PUBLIC "-//W3C//DTD SVG 1.1//EN" "http://www.w3.org/Graphics/SVG/1.1/DTD/svg11.dtd"><svg class="icon" width="200px" height="200.00px" viewBox="0 0 1024 1024" version="1.1" xmlns="http://www.w3.org/2000/svg"><path d="M734.634667 72.448C717.824 55.978667 685.226667 42.666667 661.674667 42.666667H204.8C162.389333 42.666667 128 79.189333 128 124.330667v775.338666C128 944.768 162.474667 981.333333 204.8 981.333333h614.4c42.410667 0 76.8-36.693333 76.8-81.578666V273.493333c0-23.68-13.781333-56.405333-30.378667-72.661333l-130.986666-128.426667zM341.333333 298.666667h341.333334a42.666667 42.666667 0 0 1 0 85.333333H341.333333a42.666667 42.666667 0 1 1 0-85.333333z m0 170.666666h170.666667a42.666667 42.666667 0 0 1 0 85.333334H341.333333a42.666667 42.666667 0 0 1 0-85.333334z" /></svg>