<?xml version="1.0" standalone="no"?><!DOCTYPE svg PUBLIC "-//W3C//DTD SVG 1.1//EN" "http://www.w3.org/Graphics/SVG/1.1/DTD/svg11.dtd"><svg class="icon" width="200px" height="200.00px" viewBox="0 0 1024 1024" version="1.1" xmlns="http://www.w3.org/2000/svg"><path d="M969.176313 950.856281l3.364561-580.715848a88.100288 88.100288 0 0 0-89.745997-86.19858h-126.756164v-197.485079a84.552871 84.552871 0 0 0-26.258201-61.403232A91.391706 91.391706 0 0 0 666.292716 0.002194H141.274975a91.391706 91.391706 0 0 0-63.268368 25.051348 84.845442 84.845442 0 0 0-24.978206 61.147232V952.319133h-14.482239A37.778164 37.778164 0 0 0 0.036571 988.159018c0.365713 9.508541 4.388557 18.505083 11.263964 25.051348 7.314262 6.98512 17.115374 10.861679 27.245627 10.788537h948.001524C1007.210477 1023.998903 1024.03328 1007.1761 1024.03328 986.403595c0-20.772505-16.822803-37.595308-37.485594-37.595308L969.176313 950.856281zM311.039 421.523125h196.753654c20.699362 0 37.485594 16.822803 37.485593 37.595308 0 20.772505-16.786232 37.595308-37.485593 37.595308H311.258428a38.76559 38.76559 0 0 1-33.75532-20.553077 35.657028 35.657028 0 0 1 0-36.351883c7.204548-11.556534 19.894793-18.505083 33.499321-18.285656z m196.753654 345.086891H311.258428c-20.735933 0-37.522165-16.822803-37.522165-37.595308 0-20.735933 16.822803-37.558736 37.522165-37.558736h196.753654c13.67767-0.329142 26.5142 6.619407 33.718748 18.285655 7.423976 11.812533 7.314262 26.879914-0.219428 38.582733a38.729018 38.729018 0 0 1-33.75532 18.285656z" /></svg>